<svg xmlns="http://www.w3.org/2000/svg" xmlns:xlink="http://www.w3.org/1999/xlink" width="500" zoomAndPan="magnify" viewBox="0 0 375 149.999998" height="200" preserveAspectRatio="xMidYMid meet" version="1.0"><defs><g/></defs><rect x="-37.5" width="450" fill="#ffffff" y="-15" height="179.999997" fill-opacity="1"/><rect x="-37.5" width="450" fill="#ffffff" y="-15" height="179.999997" fill-opacity="1"/><rect x="-37.5" width="450" fill="#303841" y="-15" height="179.999997" fill-opacity="1"/><g fill="#ffffff" fill-opacity="1"><g transform="translate(101.431637, 81.960103)"><g><path d="M 3.765625 -13.453125 C 3.460938 -13.191406 3.257812 -12.898438 3.15625 -12.578125 C 3.050781 -12.265625 3 -11.925781 3 -11.5625 C 3 -11.195312 3.15625 -10.863281 3.46875 -10.5625 C 3.78125 -10.257812 4.191406 -10.003906 4.703125 -9.796875 C 5.210938 -9.585938 5.796875 -9.398438 6.453125 -9.234375 C 7.109375 -9.078125 7.773438 -8.914062 8.453125 -8.75 C 9.140625 -8.582031 9.8125 -8.390625 10.46875 -8.171875 C 11.125 -7.960938 11.707031 -7.6875 12.21875 -7.34375 C 13.351562 -6.625 13.921875 -5.640625 13.921875 -4.390625 C 13.921875 -2.898438 13.363281 -1.765625 12.25 -0.984375 C 11.144531 -0.203125 9.609375 0.1875 7.640625 0.1875 C 5.410156 0.1875 3.710938 -0.273438 2.546875 -1.203125 C 1.503906 -2.035156 0.910156 -3.21875 0.765625 -4.75 L 2.640625 -4.75 C 2.703125 -3.664062 3.234375 -2.832031 4.234375 -2.25 C 5.097656 -1.757812 6.238281 -1.515625 7.65625 -1.515625 C 10.632812 -1.515625 12.125 -2.453125 12.125 -4.328125 C 12.125 -4.960938 11.851562 -5.460938 11.3125 -5.828125 C 10.78125 -6.203125 10.109375 -6.507812 9.296875 -6.75 C 8.492188 -6.988281 7.625 -7.210938 6.6875 -7.421875 C 5.75 -7.628906 4.875 -7.894531 4.0625 -8.21875 C 3.257812 -8.550781 2.585938 -8.984375 2.046875 -9.515625 C 1.515625 -10.054688 1.25 -10.785156 1.25 -11.703125 C 1.25 -12.992188 1.742188 -14.046875 2.734375 -14.859375 C 3.734375 -15.679688 5.234375 -16.09375 7.234375 -16.09375 C 9.242188 -16.09375 10.800781 -15.628906 11.90625 -14.703125 C 12.914062 -13.878906 13.453125 -12.828125 13.515625 -11.546875 L 11.671875 -11.546875 C 11.515625 -12.859375 10.664062 -13.734375 9.125 -14.171875 C 8.582031 -14.328125 7.90625 -14.40625 7.09375 -14.40625 C 6.289062 -14.40625 5.613281 -14.3125 5.0625 -14.125 C 4.507812 -13.945312 4.078125 -13.722656 3.765625 -13.453125 Z M 3.765625 -13.453125 "/></g></g></g><g fill="#ffffff" fill-opacity="1"><g transform="translate(116.198817, 81.960103)"><g><path d="M 10.921875 -1.921875 C 9.960938 -0.515625 8.53125 0.1875 6.625 0.1875 C 4.894531 0.1875 3.488281 -0.410156 2.40625 -1.609375 C 1.34375 -2.796875 0.8125 -4.257812 0.8125 -6 C 0.8125 -7.75 1.34375 -9.21875 2.40625 -10.40625 C 3.488281 -11.601562 4.9375 -12.203125 6.75 -12.203125 C 8.5625 -12.203125 9.953125 -11.488281 10.921875 -10.0625 L 10.921875 -12.015625 L 12.734375 -12.015625 L 12.734375 0 L 10.921875 0 Z M 6.875 -1.4375 C 8.164062 -1.4375 9.1875 -1.882812 9.9375 -2.78125 C 10.65625 -3.632812 11.015625 -4.707031 11.015625 -6 C 11.015625 -7.300781 10.65625 -8.375 9.9375 -9.21875 C 9.1875 -10.113281 8.164062 -10.5625 6.875 -10.5625 C 5.59375 -10.5625 4.550781 -10.113281 3.75 -9.21875 C 3 -8.375 2.625 -7.300781 2.625 -6 C 2.625 -4.707031 3 -3.632812 3.75 -2.78125 C 4.550781 -1.882812 5.59375 -1.4375 6.875 -1.4375 Z M 6.875 -1.4375 "/></g></g></g><g fill="#ffffff" fill-opacity="1"><g transform="translate(130.485758, 81.960103)"><g><path d="M 4.75 4.75 L 2.8125 4.75 L 5 -0.171875 L 0.09375 -12.015625 L 2.09375 -12.015625 L 5.953125 -2.15625 L 9.890625 -12.015625 L 11.859375 -12.015625 Z M 4.75 4.75 "/></g></g></g><g fill="#ffffff" fill-opacity="1"><g transform="translate(142.419553, 81.960103)"><g/></g></g><g fill="#ffffff" fill-opacity="1"><g transform="translate(147.534043, 81.960103)"><g><path d="M 1.5625 -12.015625 L 3.359375 -12.015625 L 3.359375 0 L 1.5625 0 Z M 3.4375 -16.375 L 3.4375 -14.03125 L 1.484375 -14.03125 L 1.484375 -16.375 Z M 3.4375 -16.375 "/></g></g></g><g fill="#ffffff" fill-opacity="1"><g transform="translate(152.456433, 81.960103)"><g><path d="M 2.859375 0 L 2.859375 -10.421875 L 0.40625 -10.421875 L 0.40625 -12.015625 L 2.859375 -12.015625 L 2.859375 -16.3125 L 4.65625 -16.3125 L 4.65625 -12.015625 L 7.421875 -12.015625 L 7.421875 -10.421875 L 4.65625 -10.421875 L 4.65625 0 Z M 2.859375 0 "/></g></g></g><g fill="#ffffff" fill-opacity="1"><g transform="translate(160.284237, 81.960103)"><g/></g></g><g fill="#ffffff" fill-opacity="1"><g transform="translate(165.398727, 81.960103)"><g><path d="M 9.046875 -9.578125 L 6.046875 0 L 3.984375 0 L 0.21875 -12.015625 L 2.140625 -12.015625 L 5.015625 -2.234375 L 8.0625 -12.015625 L 10.03125 -12.015625 L 13.09375 -2.234375 L 15.96875 -12.015625 L 17.890625 -12.015625 L 14.125 0 L 12.0625 0 Z M 9.046875 -9.578125 "/></g></g></g><g fill="#ffffff" fill-opacity="1"><g transform="translate(183.503531, 81.960103)"><g><path d="M 1.5625 -12.015625 L 3.359375 -12.015625 L 3.359375 0 L 1.5625 0 Z M 3.4375 -16.375 L 3.4375 -14.03125 L 1.484375 -14.03125 L 1.484375 -16.375 Z M 3.4375 -16.375 "/></g></g></g><g fill="#ffffff" fill-opacity="1"><g transform="translate(188.425921, 81.960103)"><g><path d="M 2.859375 0 L 2.859375 -10.421875 L 0.40625 -10.421875 L 0.40625 -12.015625 L 2.859375 -12.015625 L 2.859375 -16.3125 L 4.65625 -16.3125 L 4.65625 -12.015625 L 7.421875 -12.015625 L 7.421875 -10.421875 L 4.65625 -10.421875 L 4.65625 0 Z M 2.859375 0 "/></g></g></g><g fill="#ffffff" fill-opacity="1"><g transform="translate(196.253725, 81.960103)"><g><path d="M 3.359375 -16.8125 L 3.359375 -10.140625 C 3.796875 -10.710938 4.328125 -11.195312 4.953125 -11.59375 C 5.578125 -12 6.285156 -12.203125 7.078125 -12.203125 C 7.878906 -12.203125 8.566406 -12.085938 9.140625 -11.859375 C 9.722656 -11.640625 10.226562 -11.304688 10.65625 -10.859375 C 11.65625 -9.878906 12.15625 -8.585938 12.15625 -6.984375 L 12.15625 0 L 10.34375 0 L 10.34375 -6.9375 C 10.34375 -8.039062 10.03125 -8.921875 9.40625 -9.578125 C 8.789062 -10.234375 7.984375 -10.5625 6.984375 -10.5625 C 5.972656 -10.5625 5.117188 -10.226562 4.421875 -9.5625 C 3.710938 -8.875 3.359375 -7.992188 3.359375 -6.921875 L 3.359375 0 L 1.5625 0 L 1.5625 -16.8125 Z M 3.359375 -16.8125 "/></g></g></g><g fill="#000000" fill-opacity="1"><g transform="translate(209.841787, 81.960103)"><g/></g></g><g fill="#5271ff" fill-opacity="1"><g transform="translate(214.951162, 81.960103)"><g><path d="M 8.640625 -15.890625 C 9.585938 -15.890625 10.5 -15.707031 11.375 -15.34375 C 12.257812 -14.988281 13.039062 -14.46875 13.71875 -13.78125 C 15.207031 -12.257812 15.953125 -10.316406 15.953125 -7.953125 C 15.953125 -5.578125 15.207031 -3.628906 13.71875 -2.109375 C 13.039062 -1.421875 12.257812 -0.894531 11.375 -0.53125 C 10.5 -0.175781 9.585938 0 8.640625 0 L 1.9375 0 L 1.9375 -15.890625 Z M 8.578125 -1.703125 C 10.242188 -1.703125 11.59375 -2.316406 12.625 -3.546875 C 13.632812 -4.734375 14.140625 -6.203125 14.140625 -7.953125 C 14.140625 -9.691406 13.632812 -11.15625 12.625 -12.34375 C 11.59375 -13.570312 10.242188 -14.1875 8.578125 -14.1875 L 3.75 -14.1875 L 3.75 -1.703125 Z M 8.578125 -1.703125 "/></g></g></g><g fill="#5271ff" fill-opacity="1"><g transform="translate(231.855378, 81.960103)"><g><path d="M 10.921875 -1.921875 C 9.960938 -0.515625 8.53125 0.1875 6.625 0.1875 C 4.894531 0.1875 3.488281 -0.410156 2.40625 -1.609375 C 1.34375 -2.796875 0.8125 -4.257812 0.8125 -6 C 0.8125 -7.75 1.34375 -9.21875 2.40625 -10.40625 C 3.488281 -11.601562 4.9375 -12.203125 6.75 -12.203125 C 8.5625 -12.203125 9.953125 -11.488281 10.921875 -10.0625 L 10.921875 -12.015625 L 12.734375 -12.015625 L 12.734375 0 L 10.921875 0 Z M 6.875 -1.4375 C 8.164062 -1.4375 9.1875 -1.882812 9.9375 -2.78125 C 10.65625 -3.632812 11.015625 -4.707031 11.015625 -6 C 11.015625 -7.300781 10.65625 -8.375 9.9375 -9.21875 C 9.1875 -10.113281 8.164062 -10.5625 6.875 -10.5625 C 5.59375 -10.5625 4.550781 -10.113281 3.75 -9.21875 C 3 -8.375 2.625 -7.300781 2.625 -6 C 2.625 -4.707031 3 -3.632812 3.75 -2.78125 C 4.550781 -1.882812 5.59375 -1.4375 6.875 -1.4375 Z M 6.875 -1.4375 "/></g></g></g><g fill="#5271ff" fill-opacity="1"><g transform="translate(246.142318, 81.960103)"><g><path d="M 2.859375 0 L 2.859375 -10.421875 L 0.40625 -10.421875 L 0.40625 -12.015625 L 2.859375 -12.015625 L 2.859375 -16.3125 L 4.65625 -16.3125 L 4.65625 -12.015625 L 7.421875 -12.015625 L 7.421875 -10.421875 L 4.65625 -10.421875 L 4.65625 0 Z M 2.859375 0 "/></g></g></g><g fill="#5271ff" fill-opacity="1"><g transform="translate(253.970122, 81.960103)"><g><path d="M 10.921875 -1.921875 C 9.960938 -0.515625 8.53125 0.1875 6.625 0.1875 C 4.894531 0.1875 3.488281 -0.410156 2.40625 -1.609375 C 1.34375 -2.796875 0.8125 -4.257812 0.8125 -6 C 0.8125 -7.75 1.34375 -9.21875 2.40625 -10.40625 C 3.488281 -11.601562 4.9375 -12.203125 6.75 -12.203125 C 8.5625 -12.203125 9.953125 -11.488281 10.921875 -10.0625 L 10.921875 -12.015625 L 12.734375 -12.015625 L 12.734375 0 L 10.921875 0 Z M 6.875 -1.4375 C 8.164062 -1.4375 9.1875 -1.882812 9.9375 -2.78125 C 10.65625 -3.632812 11.015625 -4.707031 11.015625 -6 C 11.015625 -7.300781 10.65625 -8.375 9.9375 -9.21875 C 9.1875 -10.113281 8.164062 -10.5625 6.875 -10.5625 C 5.59375 -10.5625 4.550781 -10.113281 3.75 -9.21875 C 3 -8.375 2.625 -7.300781 2.625 -6 C 2.625 -4.707031 3 -3.632812 3.75 -2.78125 C 4.550781 -1.882812 5.59375 -1.4375 6.875 -1.4375 Z M 6.875 -1.4375 "/></g></g></g><g fill="#5271ff" fill-opacity="1"><g transform="translate(268.257063, 81.960103)"><g><path d="M 3.8125 -2.453125 L 3.8125 0 L 1.484375 0 L 1.484375 -2.453125 Z M 2 -4.390625 L 1.53125 -15.890625 L 3.765625 -15.890625 L 3.3125 -4.390625 Z M 2 -4.390625 "/></g></g></g></svg>